#tb 0: 1/44100
#media_type 0: audio
#codec_id 0: pcm_s16le
#sample_rate 0: 44100
#channel_layout_name 0: stereo
0,          0,          0,     4096,    16384, 0xb557e14b
0,       4096,       4096,     4096,    16384, 0x5e19e451
0,       8192,       8192,     4096,    16384, 0x302bdb89
0,      12288,      12288,     4096,    16384, 0xb558dc6d
0,      16384,      16384,     4096,    16384, 0xd9fadc57
0,      20480,      20480,     4096,    16384, 0xdbfedd51
0,      24576,      24576,     4096,    16384, 0xa930e419
0,      28672,      28672,     4096,    16384, 0xd33ae135
0,      32768,      32768,     4096,    16384, 0xb557e14b
0,      36864,      36864,     4096,    16384, 0x5e19e451
0,      40960,      40960,     4096,    16384, 0x9c4fcc75
0,      45056,      45056,     4096,    16384, 0xc17bdefb
0,      49152,      49152,     4096,    16384, 0x4f43eadb
0,      53248,      53248,     4096,    16384, 0xbc86d98b
0,      57344,      57344,     4096,    16384, 0xbfa9eec1
0,      61440,      61440,     4096,    16384, 0xa97bd007
0,      65536,      65536,     4096,    16384, 0xee4ae317
0,      69632,      69632,     4096,    16384, 0x83f9ee5f
0,      73728,      73728,     4096,    16384, 0x7cb3d57d
0,      77824,      77824,     4096,    16384, 0xaa86f291
0,      81920,      81920,     4096,    16384, 0x09941eb8
0,      86016,      86016,     4096,    16384, 0x3c46eb4f
0,      90112,      90112,     4096,    16384, 0x7cd66451
0,      94208,      94208,     4096,    16384, 0xa22e0ecc
0,      98304,      98304,     4096,    16384, 0xdaa1cda5
0,     102400,     102400,     4096,    16384, 0xb282df23
0,     106496,     106496,     4096,    16384, 0x653fd049
0,     110592,     110592,     4096,    16384, 0x75fc06e2
0,     114688,     114688,     4096,    16384, 0xd982b2f9
0,     118784,     118784,     4096,    16384, 0x256ff9f9
0,     122880,     122880,     4096,    16384, 0x630f9803
0,     126976,     126976,     4096,    16384, 0x002ceae9
0,     131072,     131072,     4096,    16384, 0xe3f3dc41
0,     135168,     135168,     4096,    16384, 0x02aae281
0,     139264,     139264,     4096,    16384, 0x023cdd3b
0,     143360,     143360,     4096,    16384, 0xea06db92
0,     147456,     147456,     4096,    16384, 0xf00ed88e
0,     151552,     151552,     4096,    16384, 0x3238d8e6
0,     155648,     155648,     4096,    16384, 0xdddddeee
0,     159744,     159744,     4096,    16384, 0x4737de70
0,     163840,     163840,     4096,    16384, 0xcde2e137
0,     167936,     167936,     4096,    16384, 0x453de2f8
0,     172032,     172032,     4096,    16384, 0x8494df50
0,     176128,     176128,     4096,    16384, 0x45f31788
0,     180224,     180224,     4096,    16384, 0xe9e19426
0,     184320,     184320,     4096,    16384, 0x40028cac
0,     188416,     188416,     4096,    16384, 0x091d9348
0,     192512,     192512,     4096,    16384, 0x7b8c87a0
0,     196608,     196608,     4096,    16384, 0x5665a062
0,     200704,     200704,     4096,    16384, 0xd6e693be
0,     204800,     204800,     4096,    16384, 0x9fac9543
0,     208896,     208896,     4096,    16384, 0x55198fcd
0,     212992,     212992,     4096,    16384, 0xe9e19426
0,     217088,     217088,     4096,    16384, 0x40028cac
0,     221184,     221184,     4096,    16384, 0x091d9348
0,     225280,     225280,     4096,    16384, 0x7b8c87a0
0,     229376,     229376,     4096,    16384, 0x5665a062
0,     233472,     233472,     4096,    16384, 0xd6e693be
0,     237568,     237568,     4096,    16384, 0x9fac9543
0,     241664,     241664,     4096,    16384, 0x55198fcd
0,     245760,     245760,     4096,    16384, 0xe9e19426
0,     249856,     249856,     4096,    16384, 0x40028cac
0,     253952,     253952,     4096,    16384, 0x091d9348
0,     258048,     258048,     4096,    16384, 0x7b8c87a0
0,     262144,     262144,     2456,     9824, 0x133d6ede
